<!--?xml version="1.0" standalone="no"?-->
              <svg id="sw-js-blob-svg" viewBox="0 0 100 100" xmlns="http://www.w3.org/2000/svg" version="1.1">
                    <defs> 
                        <linearGradient id="sw-gradient" x1="0" x2="1" y1="1" y2="0">
                            <stop id="stop1" stop-color="rgba(55, 159.74, 248, 1)" offset="0%"></stop>
                            <stop id="stop2" stop-color="rgba(251, 31, 158.156, 1)" offset="100%"></stop>
                        </linearGradient>
                    </defs>
                <path fill="url(#sw-gradient)" d="M19.8,-23.6C25,-19.2,28.1,-12.4,31.3,-4C34.6,4.3,37.9,14.1,34.8,20.7C31.7,27.3,22.1,30.8,12.9,33.2C3.6,35.7,-5.2,37.1,-12.9,34.6C-20.5,32.1,-27,25.7,-30.2,18.4C-33.4,11,-33.2,2.6,-33,-7C-32.7,-16.5,-32.3,-27.2,-26.7,-31.6C-21.2,-35.9,-10.6,-33.8,-1.7,-31.8C7.3,-29.9,14.6,-28,19.8,-23.6Z" width="100%" height="100%" transform="translate(50 50)" stroke-width="0" style="transition: 0.3s;"></path>
              </svg>